<svg width="33" height="33" viewBox="0 0 33 33" fill="none" xmlns="http://www.w3.org/2000/svg">
<path d="M19.1007 25.0754C20.4241 23.8272 21.4768 22.7218 22.2589 21.7593C23.0409 20.7818 23.4319 19.9697 23.4319 19.323C23.4319 18.932 23.2665 18.6162 22.9356 18.3755C22.6048 18.1349 22.1987 17.9168 21.7175 17.7213C21.2512 17.5409 20.7625 17.3378 20.2511 17.1123C19.7398 16.8867 19.2661 16.5934 18.83 16.2325C18.4089 15.8565 18.0554 15.3903 17.7697 14.8338C17.499 14.2774 17.3636 13.5706 17.3636 12.7133C17.3636 12.202 17.4614 11.6531 17.6569 11.0666C17.8675 10.48 18.1758 9.93862 18.5818 9.44233C19.0029 8.94604 19.5218 8.53247 20.1384 8.20161C20.755 7.87075 21.4693 7.70532 22.2814 7.70532C23.2289 7.70532 24.0485 7.87075 24.7403 8.20161C25.4471 8.51743 26.0261 8.94604 26.4773 9.48745C26.9285 10.0289 27.2669 10.6605 27.4925 11.3824C27.718 12.1042 27.8308 12.8712 27.8308 13.6833C27.8308 15.3076 27.5827 16.7814 27.0864 18.1048C26.6052 19.4132 25.9735 20.5788 25.1915 21.6014C24.4095 22.609 23.5372 23.4813 22.5747 24.2182C21.6272 24.9401 20.6873 25.5191 19.7549 25.9552L19.1007 25.0754ZM6.69343 25.0754C8.01687 23.8272 9.0696 22.7218 9.85164 21.7593C10.6337 20.7818 11.0247 19.9697 11.0247 19.323C11.0247 18.932 10.8593 18.6162 10.5284 18.3755C10.1975 18.1349 9.79148 17.9168 9.31023 17.7213C8.84402 17.5409 8.35525 17.3378 7.84392 17.1123C7.33259 16.8867 6.85886 16.5934 6.42273 16.2325C6.00164 15.8565 5.64822 15.3903 5.36248 14.8338C5.09177 14.2774 4.95642 13.5706 4.95642 12.7133C4.95642 12.202 5.05417 11.6531 5.24968 11.0666C5.46023 10.48 5.76853 9.93862 6.17459 9.44233C6.59568 8.94604 7.11453 8.53247 7.73113 8.20161C8.34773 7.87075 9.06209 7.70532 9.8742 7.70532C10.8217 7.70532 11.6413 7.87075 12.3331 8.20161C13.0399 8.51743 13.6189 8.94604 14.0701 9.48745C14.5213 10.0289 14.8596 10.6605 15.0852 11.3824C15.3108 12.1042 15.4236 12.8712 15.4236 13.6833C15.4236 15.3076 15.1755 16.7814 14.6792 18.1048C14.1979 19.4132 13.5663 20.5788 12.7843 21.6014C12.0022 22.609 11.13 23.4813 10.1675 24.2182C9.22 24.9401 8.28005 25.5191 7.34763 25.9552L6.69343 25.0754Z" fill="#A897E5"/>
</svg>
