<?xml version="1.0" standalone="no"?>
<!DOCTYPE svg PUBLIC "-//W3C//DTD SVG 20010904//EN"
 "http://www.w3.org/TR/2001/REC-SVG-20010904/DTD/svg10.dtd">
<svg version="1.0" xmlns="http://www.w3.org/2000/svg"
 width="700.000000pt" height="700.000000pt" viewBox="0 0 700.000000 700.000000"
 preserveAspectRatio="xMidYMid meet">
<metadata>
Created by potrace 1.14, written by Peter Selinger 2001-2017
</metadata>
<g transform="translate(0.000000,700.000000) scale(0.100000,-0.100000)"
fill="#000000" stroke="none">
<path d="M0 3500 l0 -3500 3500 0 3500 0 0 3500 0 3500 -3500 0 -3500 0 0
-3500z m3650 2920 l145 -138 -134 -129 c-149 -142 -155 -147 -175 -136 -7 4
-73 66 -147 136 l-134 129 145 138 c80 77 147 139 150 139 3 0 70 -62 150
-139z m385 -430 c48 -63 92 -120 97 -127 6 -8 -34 -41 -132 -108 -78 -53 -142
-95 -144 -94 -1 2 -46 62 -100 132 -55 72 -94 132 -90 137 27 27 270 187 275
182 4 -4 46 -59 94 -122z m-864 69 c41 -29 102 -72 136 -96 l62 -44 -98 -127
c-54 -70 -105 -127 -113 -126 -24 2 -269 177 -264 189 7 18 190 255 197 255 3
0 39 -23 80 -51z m-1351 -115 c102 -14 188 -30 192 -33 8 -7 -50 -372 -61
-382 -5 -6 -368 45 -397 55 -8 3 -2 57 17 178 36 217 37 218 52 213 6 -2 95
-16 197 -31z m3606 -166 c20 -127 27 -191 20 -194 -10 -3 -336 -52 -381 -57
-17 -2 -22 15 -52 193 -18 107 -31 195 -30 195 8 5 403 61 407 57 3 -2 19 -89
36 -194z m-3032 36 c83 -25 155 -50 160 -54 6 -7 -85 -295 -99 -308 -4 -4
-308 88 -317 97 -8 7 89 311 99 311 3 0 73 -21 157 -46z m2425 -106 c28 -84
48 -155 43 -159 -7 -7 -297 -99 -312 -99 -10 0 -113 301 -105 308 6 7 294 100
312 101 6 1 34 -67 62 -151z m-1214 -12 c55 -51 98 -95 95 -97 -3 -2 -49 -47
-103 -99 l-97 -95 -101 100 -100 100 98 92 c54 51 100 93 103 93 3 0 50 -42
105 -94z m-719 -76 l126 -59 -63 -118 c-34 -65 -64 -120 -66 -122 -5 -7 -252
113 -252 122 -1 9 120 237 126 237 2 0 60 -27 129 -60z m1410 -27 c26 -49 55
-102 65 -119 l19 -31 -127 -62 c-69 -34 -129 -58 -133 -54 -4 4 -35 59 -68
121 l-61 114 122 58 c67 33 125 59 129 59 4 1 28 -38 54 -86z m-1025 -195 c55
-38 88 -67 84 -75 -2 -8 -32 -49 -66 -93 l-62 -80 -27 18 c-87 56 -159 108
-160 114 0 9 129 178 136 178 3 0 45 -28 95 -62z m629 -28 c33 -43 60 -82 60
-87 0 -6 -156 -119 -180 -131 -7 -3 -145 177 -139 182 34 30 184 124 190 120
5 -3 36 -41 69 -84z m-2022 -162 l-3 -163 -172 -3 -173 -2 0 165 0 165 175 0
175 0 -2 -162z m3592 -3 l0 -165 -170 0 -170 0 0 165 0 165 170 0 170 0 0
-165z m-3232 129 c111 -16 122 -19 122 -38 0 -32 -36 -236 -43 -242 -7 -7
-251 26 -267 36 -9 6 -7 38 9 133 11 69 21 128 21 132 0 3 8 4 18 1 9 -2 72
-12 140 -22z m2686 -1 c18 -91 37 -225 33 -236 -5 -13 -262 -55 -272 -45 -6 6
-45 222 -45 248 0 12 29 20 133 37 72 11 135 21 139 22 3 0 9 -11 12 -26z
m-2237 -104 l92 -30 -36 -102 c-20 -56 -38 -104 -39 -106 -2 -3 -214 58 -221
64 -2 1 13 50 33 109 33 98 38 106 58 100 11 -3 62 -19 113 -35z m1800 -64
c18 -55 33 -102 33 -105 0 -11 -213 -71 -221 -63 -12 13 -70 185 -66 197 4 11
194 76 211 72 5 -1 25 -47 43 -101z m-917 -10 l65 -65 -68 -68 -67 -67 -67 67
-68 68 65 65 c35 36 67 65 70 65 3 0 35 -29 70 -65z m539 -106 l41 -76 -87
-42 c-47 -23 -89 -38 -93 -34 -13 15 -83 154 -79 157 16 15 165 83 170 78 3
-4 25 -41 48 -83z m-1077 44 c43 -20 78 -40 78 -44 0 -11 -81 -159 -87 -159
-3 0 -43 18 -89 39 l-85 40 43 80 c24 44 47 81 53 81 5 0 44 -16 87 -37z
m-772 -298 l0 -115 -120 0 -120 0 0 108 c0 60 3 112 7 115 3 4 57 7 120 7
l113 0 0 -115z m2720 0 l0 -115 -120 0 -120 0 0 108 c0 60 3 112 7 115 3 4 57
7 120 7 l113 0 0 -115z m-3145 73 c14 -65 41 -248 36 -248 -3 0 -62 -9 -131
-20 -69 -11 -130 -20 -136 -20 -9 0 -60 258 -52 266 3 2 237 41 265 43 7 1 15
-9 18 -21z m721 6 c76 -9 76 -8 59 -103 -8 -46 -16 -86 -18 -87 -6 -6 -171 18
-181 26 -7 7 7 130 20 169 3 9 14 11 37 7 17 -3 55 -8 83 -12z m2026 -74 l14
-89 -25 -5 c-31 -7 -153 -26 -163 -26 -3 0 -12 33 -18 73 -20 120 -24 110 55
123 130 21 120 27 137 -76z m742 70 c65 -10 121 -21 124 -24 5 -6 -33 -254
-40 -262 -4 -4 -271 36 -277 41 -2 2 6 60 18 128 12 69 21 128 21 131 0 9 26
7 154 -14z m-3925 -222 c28 -84 48 -155 43 -158 -5 -5 -197 -65 -304 -96 -13
-4 -26 24 -68 151 -29 86 -50 157 -49 159 8 5 304 95 316 95 6 1 34 -67 62
-151z m4428 105 c84 -26 153 -52 153 -58 0 -11 -98 -296 -103 -302 -3 -3 -317
94 -323 100 -8 7 99 307 110 307 5 0 79 -21 163 -47z m-2267 -198 c10 -12 16
-10 40 14 82 81 212 85 313 9 16 -12 10 -14 -50 -14 -50 0 -80 -6 -115 -22
-81 -40 -77 -47 25 -47 78 0 100 -4 147 -26 82 -39 130 -90 150 -160 l10 -33
-38 36 c-20 20 -56 45 -79 57 -42 21 -190 48 -201 37 -3 -3 1 -6 9 -6 53 0
186 -96 229 -165 32 -52 53 -150 45 -213 -5 -38 -10 -51 -16 -41 -5 8 -9 22
-9 31 0 35 -43 130 -79 176 -35 44 -139 112 -171 112 -7 0 8 -23 34 -50 100
-107 141 -269 102 -403 -17 -59 -43 -93 -32 -41 11 49 -11 163 -43 228 -16 34
-48 79 -71 101 l-41 40 23 -50 c20 -43 23 -66 23 -165 0 -108 -2 -119 -31
-180 -17 -36 -41 -76 -52 -90 l-21 -25 11 40 c6 22 12 83 12 135 1 84 -2 102
-27 151 -30 63 -63 98 -77 83 -13 -14 -32 -399 -25 -533 8 -162 35 -424 45
-434 4 -5 50 19 101 53 173 114 298 163 499 196 170 28 349 9 521 -55 97 -37
104 -52 14 -30 -117 29 -307 35 -425 15 -215 -38 -423 -134 -639 -295 l-74
-55 49 -44 c102 -91 298 -252 347 -286 l52 -36 42 21 c53 26 93 19 129 -24 21
-24 25 -38 20 -65 -6 -42 -22 -61 -63 -79 -98 -41 -177 3 -483 267 -85 74
-163 141 -172 148 -15 12 -38 -4 -198 -145 -204 -178 -313 -257 -381 -274 -62
-16 -132 8 -155 53 -45 87 71 179 149 118 l26 -20 118 89 c119 90 316 255 321
270 8 23 -228 181 -383 256 -241 117 -496 152 -724 99 -35 -8 -66 -13 -68 -10
-9 9 176 67 261 82 127 23 298 14 431 -21 118 -31 287 -109 404 -189 46 -31
85 -55 86 -54 8 9 26 197 36 358 11 188 -1 561 -19 611 -8 20 -9 20 -36 -8
-54 -53 -71 -106 -70 -223 0 -58 6 -118 13 -135 l12 -29 -21 19 c-34 30 -79
137 -89 209 -11 79 0 168 30 236 l20 45 -46 -45 c-68 -67 -115 -167 -122 -264
-6 -71 -7 -76 -19 -55 -7 13 -18 54 -24 92 -22 124 19 253 113 354 22 24 37
43 33 43 -15 0 -105 -50 -134 -74 -44 -38 -89 -113 -106 -180 -9 -33 -17 -61
-20 -63 -2 -2 -6 18 -10 45 -7 58 6 138 33 189 27 54 97 120 156 147 27 13 61
28 75 35 21 9 13 10 -45 6 -84 -7 -164 -41 -219 -93 -35 -34 -38 -35 -31 -12
4 14 18 44 32 68 54 95 218 155 332 122 33 -9 33 -9 15 11 -44 49 -135 76
-204 60 -41 -9 -41 -9 -23 11 30 34 93 58 156 58 68 0 120 -19 164 -62 l31
-30 20 38 c11 22 28 64 37 95 l18 57 27 -79 c15 -44 33 -86 40 -94z m-2653
-108 l92 -172 -176 -87 c-96 -49 -181 -88 -187 -88 -11 0 -201 339 -194 346 9
8 354 174 363 174 5 0 51 -78 102 -173z m5475 87 c95 -47 174 -87 176 -89 6
-6 -182 -345 -193 -345 -6 0 -91 39 -188 88 l-176 87 92 172 c51 95 97 173
104 173 6 0 89 -39 185 -86z m-4152 4 c0 -2 7 -41 15 -88 8 -46 11 -87 7 -91
-13 -11 -174 -31 -182 -22 -11 12 -33 163 -25 171 9 9 185 37 185 30z m2668
-14 c29 -4 55 -11 58 -16 3 -5 0 -47 -7 -94 -9 -65 -16 -84 -28 -83 -9 0 -52
6 -96 13 -91 13 -85 2 -65 125 l12 73 37 -6 c20 -3 60 -9 89 -12z m-2998 -159
c19 -57 32 -106 29 -108 -13 -13 -213 -67 -219 -60 -14 16 -70 197 -62 204 7
7 188 66 208 68 5 1 25 -46 44 -104z m3353 74 c56 -18 104 -33 106 -35 4 -3
-59 -196 -68 -206 -7 -8 -200 48 -215 62 -8 8 1 39 55 188 5 12 11 22 15 22 3
0 52 -14 107 -31z m-3725 -230 l63 -120 -127 -61 c-100 -48 -128 -57 -135 -47
-16 25 -119 218 -119 224 0 6 231 124 245 124 6 0 38 -54 73 -120z m4148 58
l121 -62 -61 -112 c-33 -61 -64 -115 -68 -118 -4 -4 -64 20 -133 53 l-125 61
19 33 c10 18 39 72 65 121 26 48 50 87 54 86 4 0 62 -28 128 -62z m-4560 -274
c49 -65 95 -125 102 -135 11 -15 -2 -27 -118 -108 -72 -50 -136 -93 -143 -95
-11 -4 -202 240 -202 257 0 5 256 192 271 198 1 0 41 -53 90 -117z m884 37
l40 -80 -80 -40 c-44 -22 -83 -40 -87 -40 -5 0 -27 36 -51 80 l-43 79 78 40
c43 22 84 40 90 41 7 0 31 -36 53 -80z m3136 45 c43 -20 80 -37 82 -40 6 -6
-79 -165 -89 -165 -5 0 -46 18 -90 40 l-80 41 43 79 c24 44 46 80 50 80 4 0
42 -16 84 -35z m1103 -151 c11 -10 -2 -33 -84 -141 -54 -70 -100 -130 -101
-132 -2 -1 -66 40 -143 94 l-141 96 102 134 102 134 125 -86 c69 -47 132 -92
140 -99z m-4545 -68 c37 -46 66 -88 66 -92 -1 -8 -78 -64 -161 -118 l-26 -17
-68 91 -68 91 24 17 c129 93 155 110 161 111 4 1 36 -37 72 -83z m3774 23 c48
-33 86 -67 86 -74 -1 -7 -30 -50 -64 -94 l-63 -81 -26 16 c-78 51 -160 110
-161 116 0 9 129 178 136 178 2 0 43 -27 92 -61z m-4073 -286 l99 -92 -99 -93
c-54 -51 -101 -93 -105 -93 -3 0 -51 42 -106 93 l-99 93 100 94 c55 52 103 93
106 92 3 -1 50 -43 104 -94z m4420 2 l100 -95 -100 -94 c-55 -53 -103 -94
-107 -93 -3 1 -49 44 -102 95 l-96 93 98 94 c53 52 99 94 102 94 3 0 50 -42
105 -94z m-3915 -30 l65 -65 -67 -67 -67 -67 -69 66 -69 67 66 65 c36 36 68
66 71 66 3 0 35 -29 70 -65z m3408 -65 c1 -3 -30 -34 -69 -69 l-71 -64 -66 67
-67 67 69 65 68 64 67 -62 c36 -34 67 -64 69 -68z m-3635 -195 c48 -33 87 -64
87 -69 0 -19 -132 -176 -143 -170 -11 7 -167 113 -176 120 -6 5 131 185 138
182 4 -2 46 -30 94 -63z m3826 -30 c34 -43 61 -82 61 -85 0 -6 -175 -130 -184
-130 -7 0 -136 168 -136 177 1 13 184 133 191 125 4 -4 35 -43 68 -87z m-4282
-109 c10 -9 -9 -40 -88 -144 l-100 -132 -112 77 c-62 43 -125 87 -141 98 l-27
21 101 132 101 132 127 -86 c70 -48 133 -92 139 -98z m4933 57 c52 -69 96
-129 98 -133 3 -8 -245 -186 -267 -192 -5 -2 -54 56 -110 128 l-100 131 137
96 c75 53 139 96 142 96 3 0 48 -56 100 -126z m-4190 -133 l80 -40 -40 -80
c-22 -44 -44 -80 -49 -80 -8 0 -162 69 -170 76 -5 5 83 164 92 164 4 0 43 -18
87 -40z m3219 -41 c24 -44 41 -82 40 -83 -12 -11 -151 -76 -162 -76 -7 0 -32
36 -56 80 l-43 81 84 39 c45 21 86 39 89 39 3 1 24 -35 48 -80z m-3711 -79
l123 -59 -62 -118 c-34 -65 -64 -120 -66 -123 -4 -5 -243 112 -249 122 -5 8
115 238 124 238 4 0 62 -27 130 -60z m4258 -46 c31 -58 58 -113 60 -122 4 -13
-21 -29 -112 -72 -64 -30 -120 -56 -125 -58 -4 -2 -24 27 -45 65 -20 37 -50
92 -66 121 l-29 53 123 59 c68 32 126 59 130 59 4 1 32 -47 64 -105z m-4904
-112 l177 -87 -95 -177 -95 -177 -182 90 c-100 49 -182 93 -182 97 0 18 179
342 189 342 6 -1 91 -40 188 -88z m5647 -83 c51 -94 90 -173 88 -176 -10 -10
-350 -173 -360 -173 -7 0 -53 78 -104 173 l-92 172 177 87 c97 48 182 88 188
88 7 0 53 -77 103 -171z m-4639 45 c47 -14 89 -30 94 -34 6 -6 -47 -193 -60
-209 -3 -3 -215 59 -223 65 -2 2 13 51 34 109 30 84 41 105 54 101 9 -3 54
-17 101 -32z m3496 -64 c18 -52 33 -100 34 -105 0 -14 -211 -79 -220 -68 -15
18 -71 196 -63 203 10 10 195 69 207 66 5 -1 24 -44 42 -96z m-3128 -56 c29
-4 55 -10 57 -14 5 -7 -21 -170 -28 -176 -6 -6 -171 18 -181 26 -7 7 7 130 20
169 3 10 15 12 42 7 20 -3 61 -9 90 -12z m2754 -74 c13 -81 13 -90 -1 -94 -28
-8 -173 -28 -176 -24 -6 6 -33 173 -29 177 4 5 137 28 170 30 19 1 23 -8 36
-89z m-3648 -26 c76 -24 141 -46 144 -48 5 -6 -93 -294 -103 -305 -5 -4 -315
86 -324 95 -2 2 20 73 50 159 49 141 55 154 74 148 11 -3 82 -26 159 -49z
m4626 -96 c27 -80 50 -150 50 -155 0 -10 -284 -103 -313 -103 -11 0 -30 43
-66 152 -28 83 -50 153 -48 154 4 4 322 102 324 100 1 -1 25 -68 53 -148z
m-4172 -64 c89 -13 112 -20 112 -33 0 -25 -39 -243 -44 -248 -5 -6 -265 33
-273 40 -3 3 4 62 16 130 12 69 21 128 21 132 0 4 12 4 28 1 15 -3 78 -13 140
-22z m3655 4 c14 -61 39 -239 34 -244 -8 -8 -267 -48 -273 -41 -7 7 -48 256
-43 261 3 3 217 39 265 45 7 0 14 -9 17 -21z m-3153 -193 l0 -116 -117 3 -118
3 -3 113 -3 112 121 0 120 0 0 -115z m340 113 c0 -2 7 -41 15 -88 8 -46 11
-87 7 -91 -6 -6 -146 -29 -176 -29 -14 0 -44 166 -32 177 9 9 186 38 186 31z
m1906 -14 c90 -9 89 -7 74 -108 -15 -98 -5 -93 -130 -73 -85 14 -80 3 -60 125
11 68 14 73 34 68 11 -2 49 -8 82 -12z m474 -99 l0 -115 -120 0 -120 0 0 115
0 115 120 0 120 0 0 -115z m-1911 -170 c23 -41 41 -78 41 -82 0 -5 -38 -27
-84 -50 l-85 -42 -44 82 -44 82 81 42 c45 23 84 42 88 42 3 1 25 -33 47 -74z
m998 32 l82 -42 -45 -82 -45 -82 -85 42 c-46 23 -84 44 -84 47 0 12 82 160 88
159 4 0 44 -19 89 -42z m-494 -221 c-36 -34 -69 -62 -72 -64 -4 -1 -36 27 -71
63 l-65 66 68 66 68 66 69 -68 69 -69 -66 -60z m-833 59 c19 -57 32 -106 29
-108 -13 -12 -214 -66 -220 -60 -9 10 -72 203 -68 207 7 4 203 64 215 65 5 1
25 -46 44 -104z m1675 70 c50 -15 93 -30 97 -34 8 -7 -48 -188 -62 -204 -10
-11 -220 54 -220 68 0 13 56 180 65 196 4 5 12 8 19 6 6 -2 52 -17 101 -32z
m-2537 -187 l-3 -163 -172 -3 -173 -2 0 165 0 165 175 0 175 0 -2 -162z m445
140 c12 -50 40 -239 36 -242 -5 -5 -272 -46 -276 -43 -6 7 -44 259 -40 264 6
5 215 40 253 42 15 1 24 -6 27 -21z m2514 3 c62 -9 115 -20 119 -24 6 -6 -30
-255 -38 -262 -2 -1 -65 7 -140 18 -110 16 -138 24 -138 36 0 9 9 68 20 131
11 63 20 116 20 118 0 5 51 0 157 -17z m633 -146 l0 -165 -170 0 -170 0 0 165
0 165 170 0 170 0 0 -165z m-2167 -36 c31 -42 57 -79 57 -82 0 -12 -181 -128
-190 -122 -6 3 -38 42 -71 87 -71 92 -74 78 46 162 60 41 82 52 90 43 6 -7 36
-47 68 -88z m579 28 l87 -59 -67 -89 c-37 -48 -70 -88 -74 -88 -6 -1 -169 109
-187 125 -8 7 134 182 144 177 5 -4 49 -33 97 -66z m-989 -119 c8 -13 37 -67
66 -120 l51 -98 -120 -60 c-66 -33 -124 -60 -129 -60 -8 0 -131 220 -131 234
0 6 229 125 242 125 4 1 14 -9 21 -21z m1363 -41 l121 -62 -62 -114 c-34 -63
-66 -116 -72 -118 -5 -2 -65 24 -132 57 -91 45 -121 64 -114 73 6 6 36 60 67
120 31 59 60 107 64 106 4 0 61 -28 128 -62z m-557 -215 c6 -4 -93 -104 -152
-154 l-47 -40 -101 93 -101 93 102 99 102 99 96 -93 c54 -52 99 -95 101 -97z
m-1234 151 c17 -43 95 -278 95 -289 0 -9 -287 -105 -315 -104 -16 0 -116 304
-102 310 18 6 301 98 308 99 4 1 10 -7 14 -16z m2238 -49 c84 -26 156 -50 161
-55 9 -8 -91 -309 -102 -309 -15 0 -308 92 -315 99 -7 7 92 311 101 311 2 0
72 -21 155 -46z m-2714 -228 c18 -104 30 -190 29 -191 -2 -1 -94 -16 -206 -32
l-202 -30 -5 21 c-6 24 -54 321 -58 351 -2 18 13 22 198 51 110 17 203 28 206
25 4 -3 21 -91 38 -195z m3271 168 c96 -14 180 -27 186 -29 8 -2 1 -63 -21
-194 -17 -105 -34 -193 -36 -195 -4 -4 -400 53 -406 58 -1 1 12 88 30 194 29
176 33 192 52 192 11 0 99 -12 195 -26z m-2017 -234 c54 -72 96 -134 92 -139
-6 -11 -249 -179 -263 -183 -6 -2 -55 56 -110 128 l-101 131 137 95 c75 53
139 96 142 97 3 0 49 -58 103 -129z m792 18 c74 -51 133 -96 132 -100 -5 -16
-193 -258 -200 -258 -6 0 -247 162 -276 186 -5 4 193 263 202 263 5 1 68 -41
142 -91z m-386 -369 c75 -72 137 -134 139 -138 1 -5 -63 -70 -143 -145 l-145
-138 -145 138 c-80 75 -144 141 -143 145 6 15 278 269 289 269 6 0 72 -59 148
-131z"/>
</g>
</svg>
